<?xml version="1.0" standalone="no"?>
<!DOCTYPE svg PUBLIC "-//W3C//DTD SVG 20010904//EN"
 "http://www.w3.org/TR/2001/REC-SVG-20010904/DTD/svg10.dtd">
<svg version="1.0" xmlns="http://www.w3.org/2000/svg"
 width="250.000000pt" height="70.000000pt" viewBox="0 0 250.000000 70.000000"
 preserveAspectRatio="xMidYMid meet">

<g transform="translate(0.000000,70.000000) scale(0.100000,-0.100000)"
fill="#000000" stroke="none">
<path d="M0 654 c0 -45 0 -45 33 -42 30 3 32 6 35 46 l3 42 -35 0 c-36 0 -36
0 -36 -46z"/>
<path d="M140 620 l0 -80 -70 0 -70 0 0 -30 0 -31 103 3 102 3 3 55 c2 30 1
79 -3 108 -6 49 -8 52 -36 52 l-29 0 0 -80z"/>
<path d="M280 611 l0 -90 35 15 c57 24 151 18 203 -12 42 -25 43 -26 23 -40
-17 -13 -20 -23 -16 -75 4 -61 15 -95 15 -46 0 14 11 43 25 63 l25 37 15 -36
c21 -51 19 -140 -4 -185 -39 -76 -113 -122 -196 -122 -127 0 -222 103 -213
234 l3 56 -75 0 c-131 0 -120 19 -120 -211 l0 -199 1250 0 1250 0 0 350 0 350
-1110 0 -1110 0 0 -89z m594 -207 c8 -3 12 -12 10 -19 -4 -10 -12 -11 -29 -5
-15 6 -27 6 -30 -1 -4 -5 7 -14 24 -20 56 -20 49 -79 -9 -79 -39 0 -60 9 -60
27 0 11 8 12 35 7 43 -8 46 7 5 23 -22 8 -30 18 -30 36 0 33 41 48 84 31z
m138 -59 c25 -62 26 -65 7 -65 -10 0 -19 5 -19 10 0 6 -16 10 -35 10 -19 0
-35 -4 -35 -10 0 -5 -7 -10 -15 -10 -20 0 -19 8 10 74 34 76 52 75 87 -9z m79
16 l16 -45 15 45 c9 26 22 45 32 47 20 4 18 -9 -15 -86 -26 -59 -47 -53 -76
23 -28 71 -27 67 -6 63 10 -2 25 -22 34 -47z m197 37 c-3 -7 -19 -14 -36 -16
-41 -4 -42 -22 -2 -22 20 0 30 -5 30 -15 0 -10 -10 -15 -30 -15 -16 0 -30 -4
-30 -10 0 -5 16 -10 35 -10 24 0 35 -5 35 -15 0 -11 -12 -15 -50 -15 l-50 0 0
65 0 65 51 0 c36 0 49 -4 47 -12z m54 -35 c3 -44 5 -48 28 -48 23 0 25 4 28
48 2 33 7 47 18 47 21 0 19 -88 -3 -112 -20 -22 -61 -23 -85 -1 -23 21 -26
113 -4 113 11 0 16 -14 18 -47z m212 26 c11 -16 12 -28 4 -50 -7 -22 -7 -33 2
-44 10 -12 9 -15 -8 -15 -12 0 -26 9 -32 20 -6 11 -15 20 -20 20 -6 0 -10 -9
-10 -20 0 -13 -7 -20 -20 -20 -18 0 -20 7 -20 65 l0 65 44 0 c34 0 48 -5 60
-21z m176 11 c20 -13 6 -24 -33 -24 -29 -1 -32 -4 -32 -31 0 -27 3 -30 32 -31
39 0 53 -11 33 -24 -29 -18 -68 -11 -89 16 -12 15 -21 32 -21 39 0 7 9 24 21
39 21 27 60 34 89 16z m133 -52 c29 -65 28 -80 -3 -60 -25 15 -55 15 -80 0
-31 -20 -32 -4 -4 61 35 80 52 80 87 -1z m137 47 c0 -10 -10 -15 -30 -15 -20
0 -30 -5 -30 -15 0 -10 10 -15 30 -15 17 0 30 -4 30 -10 0 -5 -13 -10 -30 -10
-25 0 -30 -4 -30 -25 0 -18 -5 -25 -20 -25 -18 0 -20 7 -20 65 l0 65 50 0 c38
0 50 -4 50 -15z m40 -11 c0 -14 -5 -24 -11 -22 -6 2 -10 7 -10 11 1 4 1 14 1
22 0 8 5 15 10 15 6 0 10 -12 10 -26z m128 14 c-3 -7 -19 -14 -36 -16 -41 -4
-42 -22 -2 -22 20 0 30 -5 30 -15 0 -10 -10 -15 -30 -15 -40 0 -39 -18 2 -22
17 -2 33 -9 36 -15 3 -9 -12 -13 -52 -13 l-56 0 0 65 0 65 56 0 c40 0 55 -4
52 -12z m-494 -247 c3 -5 -1 -14 -9 -21 -13 -10 -15 -9 -15 9 0 21 14 28 24
12z m-651 -15 c4 -10 1 -13 -9 -9 -7 3 -14 9 -14 14 0 14 17 10 23 -5z m64 -8
c-3 -8 -6 -5 -6 6 -1 11 2 17 5 13 3 -3 4 -12 1 -19z m40 7 c0 -8 -4 -12 -9
-9 -5 3 -6 10 -3 15 9 13 12 11 12 -6z m59 -3 c1 -7 0 -8 -3 -2 -2 5 -9 8 -14
4 -5 -3 -9 0 -9 6 0 15 23 7 26 -8z m41 3 c0 -8 -4 -15 -9 -15 -10 0 -11 14
-1 23 9 10 10 9 10 -8z m110 -7 c-3 -8 -6 -5 -6 6 -1 11 2 17 5 13 3 -3 4 -12
1 -19z m53 11 c0 -5 -4 -7 -10 -4 -5 3 -10 1 -10 -6 0 -7 -3 -10 -6 -6 -8 7 4
27 17 27 5 0 9 -5 9 -11z m70 1 c0 -5 -2 -10 -4 -10 -3 0 -8 5 -11 10 -3 6 -1
10 4 10 6 0 11 -4 11 -10z m55 -11 c-4 -5 -12 -9 -18 -8 -9 0 -8 2 1 6 6 2 9
10 6 15 -4 7 -2 8 5 4 6 -4 9 -12 6 -17z m210 0 c-4 -5 -12 -9 -18 -8 -9 0 -8
2 1 6 6 2 9 10 6 15 -4 7 -2 8 5 4 6 -4 9 -12 6 -17z m32 6 c0 -8 -4 -12 -9
-9 -5 3 -6 10 -3 15 9 13 12 11 12 -6z m48 6 c3 -5 1 -12 -5 -16 -5 -3 -10 1
-10 9 0 18 6 21 15 7z m48 -6 c-3 -9 -8 -14 -10 -11 -3 3 -2 9 2 15 9 16 15
13 8 -4z m41 -1 c3 -8 2 -12 -4 -9 -6 3 -10 10 -10 16 0 14 7 11 14 -7z"/>
<path d="M956 355 c-9 -23 -8 -25 9 -25 17 0 19 9 6 28 -7 11 -10 10 -15 -3z"/>
<path d="M1490 359 c0 -14 5 -19 17 -17 26 5 29 38 4 38 -15 0 -21 -6 -21 -21z"/>
<path d="M1807 350 c-4 -15 0 -20 14 -20 17 0 18 3 9 20 -6 11 -12 20 -14 20
-2 0 -6 -9 -9 -20z"/>
<path d="M203 473 c-7 -2 -13 -9 -13 -14 0 -6 4 -8 9 -5 5 4 7 -2 4 -12 -2
-11 3 -27 13 -36 15 -15 18 -16 26 -3 10 20 -1 77 -16 76 -6 0 -17 -3 -23 -6z"/>
<path d="M238 357 c-3 -19 -2 -25 4 -19 6 6 8 18 6 28 -3 14 -5 12 -10 -9z"/>
<path d="M367 299 c-9 -5 -22 -7 -28 -3 -8 4 -9 -1 -4 -16 7 -22 5 -23 -29
-17 -36 6 -37 5 -34 -24 l3 -30 122 -2 123 -2 9 27 c7 20 6 28 -6 32 -8 3 -19
4 -24 0 -5 -3 -18 -2 -30 1 -20 7 -20 7 -2 21 15 11 15 13 2 8 -10 -3 -20 -1
-24 5 -8 14 -54 14 -78 0z m66 -26 c-7 -2 -19 -2 -25 0 -7 3 -2 5 12 5 14 0
19 -2 13 -5z"/>
</g>
</svg>
